<svg version="1.2" xmlns="http://www.w3.org/2000/svg" viewBox="0 0 18 24" width="18" height="24">
	<title>account-svg</title>
	<style>
		.s0 { fill: #f9c222 } 
	</style>
	<g id="user">
		<path id="Ellipse_7" class="s0" d="m8.8 11.8c-3.2 0-5.9-2.6-5.9-5.9 0-3.3 2.7-5.9 5.9-5.9 3.3 0 5.9 2.6 5.9 5.9 0 3.3-2.6 5.9-5.9 5.9z"/>
		<path id="Path_92" class="s0" d="m12.1 14.3c1.1 0.5 2.1 1.1 2.9 1.9 0.8 0.8 1.4 1.8 1.9 2.9 0.4 1 0.6 2.2 0.6 3.3q0 0.2 0 0.4-0.1 0.2-0.2 0.3-0.2 0.1-0.4 0.2-0.1 0.1-0.3 0.1h-15.6q-0.2 0-0.4-0.1-0.2-0.1-0.3-0.2-0.2-0.1-0.2-0.3-0.1-0.2-0.1-0.4c0-1.1 0.2-2.3 0.7-3.3 0.4-1.1 1.1-2.1 1.9-2.9 0.8-0.8 1.8-1.4 2.8-1.9 1.1-0.4 2.2-0.6 3.4-0.7 1.1 0.1 2.3 0.3 3.3 0.7z"/>
	</g>
</svg>