<svg id="home" xmlns="http://www.w3.org/2000/svg" width="23.398" height="23.384" viewBox="0 0 23.398 23.384">
  <path id="Path_89" data-name="Path 89" d="M194.925,319.841A2.925,2.925,0,0,0,192,322.766v5.85h5.85v-5.85A2.925,2.925,0,0,0,194.925,319.841Z" transform="translate(-183.226 -305.232)" fill="#f9c222"/>
  <g id="Group_40" data-name="Group 40" transform="translate(0 0)">
    <path id="Path_90" data-name="Path 90" d="M16.574,17.694v5.85h3.9A2.925,2.925,0,0,0,23.4,20.619V11.726a1.95,1.95,0,0,0-.549-1.357L14.564,1.413A3.9,3.9,0,0,0,9.054,1.2q-.113.1-.217.217L.566,10.366A1.95,1.95,0,0,0,0,11.741v8.878a2.925,2.925,0,0,0,2.925,2.925h3.9v-5.85a4.875,4.875,0,1,1,9.749,0Z" transform="translate(0 -0.16)" fill="#f9c222"/>
    <path id="Path_91" data-name="Path 91" d="M194.925,319.841A2.925,2.925,0,0,0,192,322.766v5.85h5.85v-5.85A2.925,2.925,0,0,0,194.925,319.841Z" transform="translate(-183.226 -305.232)" fill="#f9c222"/>
  </g>
</svg>
