<svg id="fi-sr-sign-out-alt" xmlns="http://www.w3.org/2000/svg" width="23.744" height="24" viewBox="0 0 23.744 24">
  <path id="Path_2391" data-name="Path 2391" d="M11.476,15a1,1,0,0,0-1,1v3a3,3,0,0,1-3,3H5a3,3,0,0,1-3-3V5A3,3,0,0,1,5,2H7.476a3,3,0,0,1,3,3V8a1,1,0,0,0,2,0V5a5.006,5.006,0,0,0-5-5H5A5.006,5.006,0,0,0,0,5V19a5.006,5.006,0,0,0,5,5H7.476a5.006,5.006,0,0,0,5-5V16A1,1,0,0,0,11.476,15Z" fill="#282e44"/>
  <path id="Path_2392" data-name="Path 2392" d="M22.867,9.879,18.281,5.293a1,1,0,1,0-1.414,1.414L21.13,10.97,6,11a1,1,0,0,0,0,2H6l15.188-.03-4.323,4.323a1,1,0,1,0,1.414,1.414l4.586-4.586a3,3,0,0,0,0-4.242Z" fill="#282e44"/>
</svg>
